<svg width="20" height="20" viewBox="0 0 20 20" fill="none" xmlns="http://www.w3.org/2000/svg">
<g id="button type=submit">
<path id="shape" fill-rule="evenodd" clip-rule="evenodd" d="M14.1356 14.9974C12.8151 16.1215 11.1034 16.8 9.23329 16.8C5.05434 16.8 1.66663 13.4123 1.66663 9.23332C1.66663 5.05437 5.05434 1.66666 9.23329 1.66666C13.4122 1.66666 16.8 5.05437 16.8 9.23332C16.8 11.0921 16.1297 12.7944 15.0177 14.1116L18.6497 17.7437L17.7658 18.6275L14.1356 14.9974ZM15.55 9.23332C15.55 12.7219 12.7219 15.55 9.23329 15.55C5.74469 15.55 2.91663 12.7219 2.91663 9.23332C2.91663 5.74472 5.74469 2.91666 9.23329 2.91666C12.7219 2.91666 15.55 5.74472 15.55 9.23332Z" fill="black" fill-opacity="0.7"/>
</g>
</svg>
