<svg width="37" height="31" viewBox="0 0 37 31" fill="none" xmlns="http://www.w3.org/2000/svg">
<g id="icn resize icn-md" clip-path="url(#clip0_120_63)">
<path id="Vector" fill-rule="evenodd" clip-rule="evenodd" d="M35.1385 29.5145C35.1385 29.5145 37.4621 29.5145 37.4621 27.17C37.4621 24.8254 35.1385 17.7919 25.8442 17.7919C16.5499 17.7919 14.2264 24.8254 14.2264 27.17C14.2264 29.5145 16.5499 29.5145 16.5499 29.5145H35.1385ZM16.601 27.17H35.0874C35.0983 27.1687 35.1091 27.1671 35.1199 27.1653L35.1385 27.1606C35.1339 26.5416 34.7505 24.7457 33.3726 23.128C32.09 21.6111 29.8361 20.1364 25.8442 20.1364C21.8547 20.1364 19.6008 21.6135 18.3158 23.128C16.938 24.7457 16.5523 26.544 16.5499 27.1606C16.5669 27.1639 16.584 27.167 16.601 27.17ZM25.8442 13.1029C27.0767 13.1029 28.2587 12.6089 29.1303 11.7295C30.0018 10.8502 30.4914 9.6575 30.4914 8.41389C30.4914 7.17029 30.0018 5.97762 29.1303 5.09826C28.2587 4.2189 27.0767 3.72488 25.8442 3.72488C24.6117 3.72488 23.4297 4.2189 22.5582 5.09826C21.6867 5.97762 21.1971 7.17029 21.1971 8.41389C21.1971 9.6575 21.6867 10.8502 22.5582 11.7295C23.4297 12.6089 24.6117 13.1029 25.8442 13.1029ZM32.8149 8.41389C32.8149 9.33755 32.6346 10.2522 32.2843 11.1055C31.934 11.9589 31.4206 12.7342 30.7733 13.3873C30.126 14.0405 29.3575 14.5586 28.5118 14.912C27.6661 15.2655 26.7596 15.4474 25.8442 15.4474C24.9288 15.4474 24.0224 15.2655 23.1766 14.912C22.3309 14.5586 21.5625 14.0405 20.9152 13.3873C20.2679 12.7342 19.7544 11.9589 19.4041 11.1055C19.0538 10.2522 18.8735 9.33755 18.8735 8.41389C18.8735 6.54849 19.6079 4.75948 20.9152 3.44044C22.2224 2.1214 23.9955 1.38037 25.8442 1.38037C27.693 1.38037 29.466 2.1214 30.7733 3.44044C32.0805 4.75948 32.8149 6.54849 32.8149 8.41389ZM16.4012 18.4484C15.4717 18.1531 14.5136 17.9589 13.5432 17.8693C12.998 17.817 12.4505 17.7912 11.9028 17.7919C2.60849 17.7919 0.284912 24.8254 0.284912 27.17C0.284912 28.7337 1.05866 29.5145 2.60849 29.5145H12.4047C12.0602 28.7825 11.8884 27.9801 11.9028 27.17C11.9028 24.802 12.7788 22.3825 14.4355 20.3615C15.0001 19.6722 15.6577 19.0275 16.4012 18.4484ZM11.7169 20.1364C7.84118 20.1833 5.64075 21.6369 4.3744 23.128C2.98723 24.7551 2.60849 26.558 2.60849 27.17H9.57921C9.57921 24.7199 10.3297 22.2793 11.7169 20.1364ZM3.77027 9.58615C3.77027 7.72074 4.50469 5.93174 5.81195 4.6127C7.11921 3.29365 8.89225 2.55262 10.741 2.55262C12.5897 2.55262 14.3628 3.29365 15.67 4.6127C16.9773 5.93174 17.7117 7.72074 17.7117 9.58615C17.7117 11.4516 16.9773 13.2406 15.67 14.5596C14.3628 15.8786 12.5897 16.6197 10.741 16.6197C8.89225 16.6197 7.11921 15.8786 5.81195 14.5596C4.50469 13.2406 3.77027 11.4516 3.77027 9.58615ZM10.741 4.89713C9.5085 4.89713 8.32647 5.39115 7.45497 6.27051C6.58346 7.14987 6.09385 8.34254 6.09385 9.58615C6.09385 10.8298 6.58346 12.0224 7.45497 12.9018C8.32647 13.7811 9.5085 14.2752 10.741 14.2752C11.9735 14.2752 13.1555 13.7811 14.027 12.9018C14.8985 12.0224 15.3881 10.8298 15.3881 9.58615C15.3881 8.34254 14.8985 7.14987 14.027 6.27051C13.1555 5.39115 11.9735 4.89713 10.741 4.89713Z" fill="#2576B3"/>
</g>
<defs>
<clipPath id="clip0_120_63">
<rect width="36.1724" height="29.7891" fill="white" transform="translate(0.536133 0.375732)"/>
</clipPath>
</defs>
</svg>
