<svg width="37" height="31" viewBox="0 0 37 31" fill="none" xmlns="http://www.w3.org/2000/svg">
<g id="icn resize icn-md" clip-path="url(#clip0_42_201)">
<path id="Vector" fill-rule="evenodd" clip-rule="evenodd" d="M35.1385 29.5145C35.1385 29.5145 37.4621 29.5145 37.4621 27.17C37.4621 24.8255 35.1385 17.792 25.8442 17.792C16.5499 17.792 14.2264 24.8255 14.2264 27.17C14.2264 29.5145 16.5499 29.5145 16.5499 29.5145H35.1385ZM16.601 27.17H35.0874C35.0983 27.1687 35.1091 27.1672 35.1199 27.1653L35.1385 27.1607C35.1339 26.5417 34.7505 24.7458 33.3726 23.1281C32.09 21.6112 29.8361 20.1365 25.8442 20.1365C21.8547 20.1365 19.6008 21.6135 18.3158 23.1281C16.938 24.7458 16.5523 26.544 16.5499 27.1607C16.5669 27.164 16.584 27.1671 16.601 27.17ZM25.8442 13.103C27.0767 13.103 28.2587 12.609 29.1303 11.7296C30.0018 10.8502 30.4914 9.65757 30.4914 8.41397C30.4914 7.17036 30.0018 5.9777 29.1303 5.09834C28.2587 4.21897 27.0767 3.72495 25.8442 3.72495C24.6117 3.72495 23.4297 4.21897 22.5582 5.09834C21.6867 5.9777 21.1971 7.17036 21.1971 8.41397C21.1971 9.65757 21.6867 10.8502 22.5582 11.7296C23.4297 12.609 24.6117 13.103 25.8442 13.103ZM32.8149 8.41397C32.8149 9.33762 32.6346 10.2522 32.2843 11.1056C31.934 11.9589 31.4206 12.7343 30.7733 13.3874C30.126 14.0405 29.3575 14.5586 28.5118 14.9121C27.6661 15.2656 26.7596 15.4475 25.8442 15.4475C24.9288 15.4475 24.0224 15.2656 23.1766 14.9121C22.3309 14.5586 21.5625 14.0405 20.9152 13.3874C20.2679 12.7343 19.7544 11.9589 19.4041 11.1056C19.0538 10.2522 18.8735 9.33762 18.8735 8.41397C18.8735 6.54856 19.6079 4.75956 20.9152 3.44052C22.2224 2.12148 23.9955 1.38045 25.8442 1.38045C27.693 1.38045 29.466 2.12148 30.7733 3.44052C32.0805 4.75956 32.8149 6.54856 32.8149 8.41397ZM16.4012 18.4485C15.4717 18.1531 14.5136 17.959 13.5432 17.8694C12.998 17.817 12.4505 17.7912 11.9028 17.792C2.60849 17.792 0.284912 24.8255 0.284912 27.17C0.284912 28.7338 1.05866 29.5145 2.60849 29.5145H12.4047C12.0602 28.7826 11.8884 27.9801 11.9028 27.17C11.9028 24.8021 12.7788 22.3825 14.4355 20.3616C15.0001 19.6723 15.6577 19.0276 16.4012 18.4485ZM11.7169 20.1365C7.84118 20.1834 5.64075 21.637 4.3744 23.1281C2.98723 24.7552 2.60849 26.5581 2.60849 27.17H9.57921C9.57921 24.72 10.3297 22.2794 11.7169 20.1365ZM3.77027 9.58622C3.77027 7.72082 4.50469 5.93181 5.81195 4.61277C7.11921 3.29373 8.89225 2.5527 10.741 2.5527C12.5897 2.5527 14.3628 3.29373 15.67 4.61277C16.9773 5.93181 17.7117 7.72082 17.7117 9.58622C17.7117 11.4516 16.9773 13.2406 15.67 14.5597C14.3628 15.8787 12.5897 16.6197 10.741 16.6197C8.89225 16.6197 7.11921 15.8787 5.81195 14.5597C4.50469 13.2406 3.77027 11.4516 3.77027 9.58622ZM10.741 4.89721C9.5085 4.89721 8.32647 5.39123 7.45497 6.27059C6.58346 7.14995 6.09385 8.34262 6.09385 9.58622C6.09385 10.8298 6.58346 12.0225 7.45497 12.9019C8.32647 13.7812 9.5085 14.2752 10.741 14.2752C11.9735 14.2752 13.1555 13.7812 14.027 12.9019C14.8985 12.0225 15.3881 10.8298 15.3881 9.58622C15.3881 8.34262 14.8985 7.14995 14.027 6.27059C13.1555 5.39123 11.9735 4.89721 10.741 4.89721Z" fill="#2576B3"/>
</g>
<defs>
<clipPath id="clip0_42_201">
<rect width="36.1724" height="29.7891" fill="white" transform="translate(0.536133 0.375702)"/>
</clipPath>
</defs>
</svg>
