<svg width="37" height="31" viewBox="0 0 37 31" fill="none" xmlns="http://www.w3.org/2000/svg">
<g id="icn resize icn-md" clip-path="url(#clip0_42_213)">
<path id="Vector" fill-rule="evenodd" clip-rule="evenodd" d="M35.3539 29.6365C35.3539 29.6365 37.6774 29.6365 37.6774 27.292C37.6774 24.9475 35.3539 17.914 26.0596 17.914C16.7653 17.914 14.4417 24.9475 14.4417 27.292C14.4417 29.6365 16.7653 29.6365 16.7653 29.6365H35.3539ZM16.8164 27.292H35.3027C35.3136 27.2908 35.3245 27.2892 35.3353 27.2873L35.3539 27.2827C35.3492 26.6637 34.9658 24.8678 33.5879 23.2501C32.3053 21.7332 30.0515 20.2585 26.0596 20.2585C22.07 20.2585 19.8161 21.7356 18.5312 23.2501C17.1533 24.8678 16.7676 26.6661 16.7653 27.2827C16.7823 27.286 16.7993 27.2891 16.8164 27.292ZM26.0596 13.225C27.2921 13.225 28.4741 12.731 29.3456 11.8516C30.2171 10.9723 30.7067 9.77958 30.7067 8.53598C30.7067 7.29237 30.2171 6.0997 29.3456 5.22034C28.4741 4.34098 27.2921 3.84696 26.0596 3.84696C24.8271 3.84696 23.645 4.34098 22.7735 5.22034C21.902 6.0997 21.4124 7.29237 21.4124 8.53598C21.4124 9.77958 21.902 10.9723 22.7735 11.8516C23.645 12.731 24.8271 13.225 26.0596 13.225ZM33.0303 8.53598C33.0303 9.45963 32.85 10.3742 32.4997 11.2276C32.1494 12.0809 31.6359 12.8563 30.9886 13.5094C30.3413 14.1626 29.5729 14.6806 28.7271 15.0341C27.8814 15.3876 26.975 15.5695 26.0596 15.5695C25.1441 15.5695 24.2377 15.3876 23.392 15.0341C22.5463 14.6806 21.7778 14.1626 21.1305 13.5094C20.4832 12.8563 19.9698 12.0809 19.6195 11.2276C19.2691 10.3742 19.0888 9.45963 19.0888 8.53598C19.0888 6.67057 19.8232 4.88157 21.1305 3.56253C22.4378 2.24349 24.2108 1.50246 26.0596 1.50246C27.9083 1.50246 29.6813 2.24349 30.9886 3.56253C32.2959 4.88157 33.0303 6.67057 33.0303 8.53598ZM16.6166 18.5705C15.6871 18.2752 14.729 18.081 13.7586 17.9914C13.2133 17.9391 12.6658 17.9132 12.1181 17.914C2.82382 17.914 0.500244 24.9475 0.500244 27.292C0.500244 28.8558 1.27399 29.6365 2.82382 29.6365H12.62C12.2755 28.9046 12.1038 28.1022 12.1181 27.292C12.1181 24.9241 12.9941 22.5046 14.6508 20.4836C15.2154 19.7943 15.873 19.1496 16.6166 18.5705ZM11.9322 20.2585C8.05651 20.3054 5.85608 21.759 4.58973 23.2501C3.20256 24.8772 2.82382 26.6801 2.82382 27.292H9.79454C9.79454 24.842 10.5451 22.4014 11.9322 20.2585ZM3.98561 9.70823C3.98561 7.84283 4.72002 6.05382 6.02728 4.73478C7.33455 3.41574 9.10758 2.67471 10.9563 2.67471C12.8051 2.67471 14.5781 3.41574 15.8854 4.73478C17.1926 6.05382 17.927 7.84283 17.927 9.70823C17.927 11.5736 17.1926 13.3626 15.8854 14.6817C14.5781 16.0007 12.8051 16.7418 10.9563 16.7418C9.10758 16.7418 7.33455 16.0007 6.02728 14.6817C4.72002 13.3626 3.98561 11.5736 3.98561 9.70823ZM10.9563 5.01922C9.72383 5.01922 8.54181 5.51324 7.6703 6.3926C6.79879 7.27196 6.30918 8.46463 6.30918 9.70823C6.30918 10.9518 6.79879 12.1445 7.6703 13.0239C8.54181 13.9032 9.72383 14.3972 10.9563 14.3972C12.1888 14.3972 13.3708 13.9032 14.2424 13.0239C15.1139 12.1445 15.6035 10.9518 15.6035 9.70823C15.6035 8.46463 15.1139 7.27196 14.2424 6.3926C13.3708 5.51324 12.1888 5.01922 10.9563 5.01922Z" fill="white"/>
</g>
<defs>
<clipPath id="clip0_42_213">
<rect width="36.1724" height="29.7891" fill="white" transform="translate(0.751465 0.497711)"/>
</clipPath>
</defs>
</svg>
